<?xml version="1.0" encoding="utf-8"?>
<!-- Generator: Adobe Illustrator 28.0.0, SVG Export Plug-In . SVG Version: 6.00 Build 0)  -->
<svg version="1.1" id="Layer_1" xmlns="http://www.w3.org/2000/svg" xmlns:xlink="http://www.w3.org/1999/xlink" x="0px" y="0px"
	 viewBox="0 0 563.3 541.5" style="enable-background:new 0 0 563.3 541.5;" xml:space="preserve">
<g>
	<g>
		<defs>
			<path id="SVGID_1_" d="M96.1,85.2c-0.4,0.4-0.8,0.9-1.2,1.3l97.2,97.4c0.5-0.5,0.8-1,1.3-1.4c24.1-24.1,52.9-36.2,86.4-36.6
				l0-138C208.5,8.2,147.3,34,96.1,85.2"/>
		</defs>
		<clipPath id="SVGID_00000039824957616646558270000010012472101549702037_">
			<use xlink:href="#SVGID_1_"  style="overflow:visible;"/>
		</clipPath>
		
			<linearGradient id="SVGID_00000035515734292107306750000007268280578824119740_" gradientUnits="userSpaceOnUse" x1="-131.0495" y1="589.1401" x2="-125.067" y2="589.1401" gradientTransform="matrix(-9.5842 -27.2254 27.2254 -9.5842 -17083.8848 2243.7571)">
			<stop  offset="0" style="stop-color:#F04F00"/>
			<stop  offset="0.1382" style="stop-color:#F15F00"/>
			<stop  offset="0.51" style="stop-color:#F48400"/>
			<stop  offset="0.8105" style="stop-color:#F59B00"/>
			<stop  offset="1" style="stop-color:#F6A300"/>
		</linearGradient>
		
			<polygon style="clip-path:url(#SVGID_00000039824957616646558270000010012472101549702037_);fill:url(#SVGID_00000035515734292107306750000007268280578824119740_);" points="
			334.9,164.5 259.3,-50.1 39.7,27.2 115.2,241.8 		"/>
	</g>
	<g>
		<defs>
			<path id="SVGID_00000128471737314969053580000016364077846532767627_" d="M18.7,270.6v0.4h138c0-0.2,0-0.3,0-0.4
				c0-33.6,11.8-62.5,35.4-86.8L94.9,86.5C44.1,137.9,18.6,199.3,18.7,270.6"/>
		</defs>
		<clipPath id="SVGID_00000128464809935839001830000016058947276803026111_">
			<use xlink:href="#SVGID_00000128471737314969053580000016364077846532767627_"  style="overflow:visible;"/>
		</clipPath>
		
			<linearGradient id="SVGID_00000020397875018352388330000009533363908590057886_" gradientUnits="userSpaceOnUse" x1="-127.3409" y1="593.8725" x2="-121.3605" y2="593.8725" gradientTransform="matrix(-26.538 -11.9775 11.9774 -26.538 -10302.9912 14451.6865)">
			<stop  offset="0" style="stop-color:#F05A28"/>
			<stop  offset="0.3456" style="stop-color:#F37324"/>
			<stop  offset="0.7463" style="stop-color:#F58A1F"/>
			<stop  offset="1" style="stop-color:#F6921E"/>
		</linearGradient>
		
			<polygon style="clip-path:url(#SVGID_00000128464809935839001830000016058947276803026111_);fill:url(#SVGID_00000020397875018352388330000009533363908590057886_);" points="
			261.2,117.7 48,21.5 -50.5,239.8 162.7,336.1 		"/>
	</g>
	<g>
		<defs>
			<path id="SVGID_00000033341157108867249410000012272682153939833787_" d="M18.7,271c0.1,71.3,25.6,132.6,76.5,184l97.3-97.3
				c-23.7-24.2-35.7-53.1-35.8-86.7H18.7z"/>
		</defs>
		<clipPath id="SVGID_00000100349630401053060160000002121329056601826207_">
			<use xlink:href="#SVGID_00000033341157108867249410000012272682153939833787_"  style="overflow:visible;"/>
		</clipPath>
		
			<linearGradient id="SVGID_00000124143999828159827470000002864255794460129934_" gradientUnits="userSpaceOnUse" x1="-126.4565" y1="598.9187" x2="-120.4736" y2="598.9187" gradientTransform="matrix(-26.0609 12.7565 -12.7565 -26.0609 4521.0718 17549.8066)">
			<stop  offset="0" style="stop-color:#F07A00"/>
			<stop  offset="4.531682e-03" style="stop-color:#F07A00"/>
			<stop  offset="0.6095" style="stop-color:#F48C16"/>
			<stop  offset="1" style="stop-color:#F6921E"/>
		</linearGradient>
		
			<polygon style="clip-path:url(#SVGID_00000100349630401053060160000002121329056601826207_);fill:url(#SVGID_00000124143999828159827470000002864255794460129934_);" points="
			158.9,202.4 -54,306.6 52.3,523.7 265.1,419.5 		"/>
	</g>
	<g>
		<defs>
			<path id="SVGID_00000106869714409801405740000009785794326177601177_" d="M281.7,395.8c-0.7,0-1.4-0.1-2-0.1l0,138
				c0.7,0,1.4,0,2.1,0c71.3,0,132.6-25.4,184-76.1l-97.3-97.3C344.3,383.9,315.4,395.8,281.7,395.8"/>
		</defs>
		<clipPath id="SVGID_00000110432124974392543520000015658057009634547599_">
			<use xlink:href="#SVGID_00000106869714409801405740000009785794326177601177_"  style="overflow:visible;"/>
		</clipPath>
		
			<linearGradient id="SVGID_00000160897344695182536910000000448787376162891915_" gradientUnits="userSpaceOnUse" x1="-139.3982" y1="590.0905" x2="-133.4164" y2="590.0905" gradientTransform="matrix(-20.7303 -20.7303 20.7303 -20.7303 -14697.9336 9841.8984)">
			<stop  offset="0" style="stop-color:#FFA300"/>
			<stop  offset="0.6045" style="stop-color:#F89716"/>
			<stop  offset="1" style="stop-color:#F6921E"/>
		</linearGradient>
		
			<polygon style="clip-path:url(#SVGID_00000110432124974392543520000015658057009634547599_);fill:url(#SVGID_00000160897344695182536910000000448787376162891915_);" points="
			552.5,447.1 372.7,267.3 193,447.1 372.7,626.8 		"/>
	</g>
	<g>
		<defs>
			<path id="SVGID_00000016758335122000326760000006097931581455590566_" d="M369.9,359c-0.5,0.4-1,0.8-1.5,1.3l97.3,97.3
				c0.5-0.5,1-0.9,1.4-1.3c51.5-51.5,77.3-113,77.4-184.6l-138-0.6C406.6,305.2,394.4,334.5,369.9,359"/>
		</defs>
		<clipPath id="SVGID_00000085243207689546225140000014872752188442570125_">
			<use xlink:href="#SVGID_00000016758335122000326760000006097931581455590566_"  style="overflow:visible;"/>
		</clipPath>
		
			<linearGradient id="SVGID_00000003816733873222040340000010825558659304955048_" gradientUnits="userSpaceOnUse" x1="-138.4439" y1="592.9305" x2="-132.4622" y2="592.9305" gradientTransform="matrix(-26.0934 -12.7738 12.7738 -26.0934 -10657.6182 14102.834)">
			<stop  offset="0" style="stop-color:#FFC42B"/>
			<stop  offset="0.2897" style="stop-color:#FCB126"/>
			<stop  offset="0.7247" style="stop-color:#F89A20"/>
			<stop  offset="1" style="stop-color:#F6921E"/>
		</linearGradient>
		
			<polygon style="clip-path:url(#SVGID_00000085243207689546225140000014872752188442570125_);fill:url(#SVGID_00000003816733873222040340000010825558659304955048_);" points="
			618.3,307.1 402.5,201.5 294.8,421.5 510.6,527.2 		"/>
	</g>
	<g>
		<defs>
			<path id="SVGID_00000008110098214346278000000014682712509415756981_" d="M95.2,455c0.3,0.3,0.7,0.7,1.1,1.1
				c51.2,51.2,112.4,77,183.4,77.5l0-138c-33.4-0.5-62.1-12.8-86.2-36.8c-0.4-0.4-0.7-0.8-1-1.1L95.2,455z"/>
		</defs>
		<clipPath id="SVGID_00000047021800290497396750000016602777561589260721_">
			<use xlink:href="#SVGID_00000008110098214346278000000014682712509415756981_"  style="overflow:visible;"/>
		</clipPath>
		
			<linearGradient id="SVGID_00000006668332599679354700000010556921225006859196_" gradientUnits="userSpaceOnUse" x1="-149.0633" y1="590.9391" x2="-143.0816" y2="590.9391" gradientTransform="matrix(13.808 -23.285 23.285 13.808 -11554.1465 -11117.7285)">
			<stop  offset="0" style="stop-color:#FF9400"/>
			<stop  offset="0.6051" style="stop-color:#FF8716"/>
			<stop  offset="1" style="stop-color:#FF821E"/>
		</linearGradient>
		
			<polygon style="clip-path:url(#SVGID_00000047021800290497396750000016602777561589260721_);fill:url(#SVGID_00000006668332599679354700000010556921225006859196_);" points="
			231.7,614.6 356.9,403.5 143.2,276.8 18,487.9 		"/>
	</g>
	<g>
		<defs>
			<path id="SVGID_00000044880360267946105820000001183397353792428721_" d="M279.7,7.8l0,138c0.6,0,1.2-0.1,1.8-0.1
				c33.8,0,62.8,12,87.1,35.8l97.3-97.3C414.5,33.3,353,7.8,281.6,7.8C280.9,7.8,280.3,7.8,279.7,7.8"/>
		</defs>
		<clipPath id="SVGID_00000098922721758186895080000001086262578801536442_">
			<use xlink:href="#SVGID_00000044880360267946105820000001183397353792428721_"  style="overflow:visible;"/>
		</clipPath>
		
			<linearGradient id="SVGID_00000083087625311422983410000003925264348339445155_" gradientUnits="userSpaceOnUse" x1="-138.5389" y1="602.625" x2="-132.5567" y2="602.625" gradientTransform="matrix(-20.7089 20.7089 -20.7089 -20.7089 10035.2266 15391.6338)">
			<stop  offset="0" style="stop-color:#FABD47"/>
			<stop  offset="1" style="stop-color:#FFC42E"/>
		</linearGradient>
		
			<polygon style="clip-path:url(#SVGID_00000098922721758186895080000001086262578801536442_);fill:url(#SVGID_00000083087625311422983410000003925264348339445155_);" points="
			372.8,-85.4 192.8,94.7 372.8,274.7 552.8,94.7 		"/>
	</g>
	<g>
		<defs>
			<path id="SVGID_00000092445559523334961260000014943504550353549724_" d="M368.6,181.6c0.4,0.4,0.8,0.7,1.1,1
				c24.6,24.6,36.9,54,36.9,88.2v0.2l138,0.6c0-0.3,0-0.5,0.1-0.8c-0.1-72-25.9-133.8-77.6-185.5c-0.4-0.4-0.8-0.7-1.1-1.1
				L368.6,181.6z"/>
		</defs>
		<clipPath id="SVGID_00000036209015437734281530000001155405325785806759_">
			<use xlink:href="#SVGID_00000092445559523334961260000014943504550353549724_"  style="overflow:visible;"/>
		</clipPath>
		
			<linearGradient id="SVGID_00000142146733388798844850000002932982001622477496_" gradientUnits="userSpaceOnUse" x1="-137.917" y1="599.5504" x2="-131.9363" y2="599.5504" gradientTransform="matrix(-25.914 13.2094 -13.2094 -25.914 4873.5781 17500.2246)">
			<stop  offset="0" style="stop-color:#FFC42B"/>
			<stop  offset="0.482" style="stop-color:#FCB738"/>
			<stop  offset="1" style="stop-color:#FAAF40"/>
		</linearGradient>
		
			<polygon style="clip-path:url(#SVGID_00000036209015437734281530000001155405325785806759_);fill:url(#SVGID_00000142146733388798844850000002932982001622477496_);" points="
			508.4,13.1 292.8,122.9 404.9,342.9 620.5,233 		"/>
	</g>
</g>
</svg>
